<svg width="198" height="93" viewBox="0 0 198 93" fill="none" xmlns="http://www.w3.org/2000/svg">
<path d="M71.7374 14.4643C56.5544 10.3863 39.6203 17.0393 25.0083 11.2403C24.6503 11.0983 24.2703 10.9453 23.8903 11.0123C23.5843 11.0653 23.3223 11.2543 23.0713 11.4373C17.9313 15.1953 12.7923 18.9543 7.65234 22.7123C10.9513 22.3253 21.7683 22.7863 24.7333 22.9233C30.5023 23.1913 36.2623 23.6563 41.9993 24.3183C53.5533 25.6513 65.0164 27.7803 76.2784 30.6873C82.5994 32.3193 88.7683 34.7103 95.0733 36.2723C91.5543 25.7463 82.3994 17.3273 71.7374 14.4643Z" fill="white"/>
<path d="M76.6813 15.0282C68.1793 11.4992 58.8083 10.6932 49.6053 10.4992C43.3453 10.3672 36.5483 10.3272 31.6123 6.47418C33.9323 6.20718 36.2073 5.5482 38.3113 4.5332C39.1853 5.9872 40.8863 6.7032 42.5133 7.1832C50.5093 9.5422 59.1213 8.3882 67.3283 9.8522C77.9983 11.7552 87.7583 18.2942 93.5753 27.4392C94.6513 29.1312 95.6953 31.2902 96.1613 33.6852C94.5913 29.9802 91.0333 25.3832 89.2593 23.5172C85.7503 19.8262 81.3753 16.9772 76.6813 15.0282Z" fill="white"/>
<path d="M70.4448 7.2265C66.3718 6.3555 61.9208 6.2685 57.7818 5.8085C55.7658 5.5845 53.7388 5.3095 51.8168 4.6615C49.8938 4.0145 48.0638 2.96851 46.7598 1.41351C48.4258 1.59451 50.1378 1.3425 51.6808 0.6875C51.8548 1.4255 52.4008 2.01951 52.9878 2.49951C54.6068 3.82251 56.6508 4.52849 58.7078 4.90549C60.7648 5.28149 62.8628 5.35149 64.9438 5.54749C70.3768 6.05949 75.8878 7.5175 80.4568 10.5925C81.7308 11.4505 84.4328 13.7105 85.4778 14.8405C80.9358 10.9325 75.4118 8.2895 70.4448 7.2265Z" fill="white"/>
<path d="M96.161 39.9052C96.161 39.9052 59.905 25.9382 5.121 25.7822L0 29.5072C0 29.5072 45.819 25.1612 96.161 39.9052Z" fill="#4C1204"/>
<path d="M120.584 14.5538C135.767 10.4758 152.701 17.1288 167.313 11.3298C167.671 11.1878 168.051 11.0358 168.431 11.1018C168.737 11.1548 168.999 11.3438 169.25 11.5268C174.39 15.2848 179.529 19.0438 184.669 22.8018C181.37 22.4148 170.553 22.8758 167.588 23.0128C161.819 23.2808 156.059 23.7458 150.322 24.4078C138.768 25.7408 127.305 27.8698 116.043 30.7768C109.722 32.4088 103.552 34.7998 97.248 36.3618C100.768 25.8358 109.923 17.4178 120.584 14.5538Z" fill="white"/>
<path d="M115.641 15.118C124.143 11.589 133.514 10.7831 142.718 10.5891C148.978 10.4571 155.775 10.417 160.711 6.56403C158.391 6.29703 156.116 5.63805 154.012 4.62305C153.138 6.07705 151.437 6.79304 149.81 7.27304C141.814 9.63204 133.202 8.47805 124.995 9.94205C114.325 11.845 104.565 18.3841 98.7481 27.5291C97.6721 29.2211 96.6281 31.3801 96.1621 33.7751C97.7321 30.0701 101.289 25.4731 103.064 23.6071C106.572 19.9161 110.946 17.066 115.641 15.118Z" fill="white"/>
<path d="M121.877 7.31635C125.95 6.44535 130.401 6.35835 134.54 5.89835C136.556 5.67435 138.582 5.39934 140.505 4.75134C142.428 4.10334 144.258 3.05836 145.562 1.50336C143.896 1.68436 142.184 1.43234 140.641 0.777344C140.467 1.51534 139.921 2.10936 139.334 2.58936C137.715 3.91236 135.671 4.61835 133.614 4.99435C131.558 5.37035 129.459 5.44035 127.378 5.63635C121.945 6.14735 116.434 7.60634 111.865 10.6813C110.591 11.5393 107.889 13.7994 106.844 14.9294C111.386 11.0214 116.91 8.37835 121.877 7.31635Z" fill="white"/>
<path d="M96.1611 39.9941C96.1611 39.9941 132.417 26.0271 187.2 25.8711L192.321 29.5961C192.321 29.5961 146.503 25.2511 96.1611 39.9941Z" fill="#4C1204"/>
<path d="M25.7129 31.7676C25.7129 31.7676 65.0879 32.6556 96.1609 42.2086V46.6516C96.1609 46.6516 79.4719 37.9876 25.7129 31.7676Z" fill="#B55206"/>
<path d="M166.609 31.7676C166.609 31.7676 127.234 32.6556 96.1611 42.2086V46.6516C96.1611 46.6516 112.85 37.9876 166.609 31.7676Z" fill="#B55206"/>
<path d="M9.562 76.89C9.94333 77.566 10.3593 78.1553 10.81 78.658C11.278 79.1607 11.7893 79.5507 12.344 79.828C12.8987 80.1053 13.4967 80.244 14.138 80.244C14.8833 80.244 15.49 80.0533 15.958 79.672C16.426 79.2907 16.66 78.7707 16.66 78.112C16.66 77.54 16.5127 77.0807 16.218 76.734C15.9407 76.3873 15.516 76.084 14.944 75.824C14.3893 75.5467 13.7047 75.252 12.89 74.94C12.4567 74.784 11.954 74.576 11.382 74.316C10.8273 74.0387 10.2987 73.692 9.796 73.276C9.29333 72.8427 8.87733 72.3227 8.548 71.716C8.21867 71.092 8.054 70.3467 8.054 69.48C8.054 68.44 8.314 67.5473 8.834 66.802C9.37133 66.0393 10.0907 65.4587 10.992 65.06C11.9107 64.644 12.9333 64.436 14.06 64.436C15.2213 64.436 16.218 64.6353 17.05 65.034C17.8993 65.4153 18.6013 65.9093 19.156 66.516C19.728 67.1053 20.17 67.7207 20.482 68.362L17.57 69.974C17.3273 69.5407 17.0327 69.1507 16.686 68.804C16.3567 68.44 15.9753 68.154 15.542 67.946C15.1087 67.7207 14.6147 67.608 14.06 67.608C13.332 67.608 12.786 67.7813 12.422 68.128C12.058 68.4573 11.876 68.8473 11.876 69.298C11.876 69.7487 12.0233 70.1473 12.318 70.494C12.6127 70.8233 13.0633 71.144 13.67 71.456C14.2767 71.7507 15.0393 72.054 15.958 72.366C16.5473 72.574 17.1107 72.834 17.648 73.146C18.2027 73.458 18.6967 73.8393 19.13 74.29C19.5807 74.7233 19.9273 75.2433 20.17 75.85C20.43 76.4393 20.56 77.124 20.56 77.904C20.56 78.788 20.3867 79.5767 20.04 80.27C19.6933 80.9633 19.2167 81.5527 18.61 82.038C18.0033 82.506 17.3187 82.8613 16.556 83.104C15.8107 83.364 15.022 83.494 14.19 83.494C13.0807 83.494 12.0407 83.286 11.07 82.87C10.1167 82.4367 9.28467 81.856 8.574 81.128C7.86333 80.4 7.30867 79.6113 6.91 78.762L9.562 76.89ZM26.1132 78.866L26.5552 75.928H35.2912L35.7332 78.866H26.1132ZM30.8712 70.702L28.1412 76.968L28.2192 77.8L25.8272 83H21.6412L30.8712 63.734L40.1012 83H35.8892L33.5492 77.956L33.6012 77.02L30.8712 70.702ZM42.0756 64.8H45.8716V83H42.0756V64.8ZM48.2636 83H44.4676V79.62H48.1336C48.9309 79.62 49.6849 79.516 50.3956 79.308C51.1063 79.0827 51.7303 78.736 52.2676 78.268C52.8049 77.8 53.2209 77.2107 53.5156 76.5C53.8276 75.772 53.9836 74.9053 53.9836 73.9C53.9836 72.8947 53.8276 72.0367 53.5156 71.326C53.2209 70.598 52.8049 70 52.2676 69.532C51.7303 69.064 51.1063 68.726 50.3956 68.518C49.6849 68.2927 48.9309 68.18 48.1336 68.18H44.4676V64.8H48.2636C50.1703 64.8 51.8343 65.1727 53.2556 65.918C54.6943 66.6633 55.8123 67.7207 56.6096 69.09C57.4069 70.442 57.8056 72.0453 57.8056 73.9C57.8056 75.7547 57.4069 77.3667 56.6096 78.736C55.8123 80.088 54.6943 81.1367 53.2556 81.882C51.8343 82.6273 50.1703 83 48.2636 83ZM61.9089 74.992V71.638H75.2729V74.992H61.9089ZM72.9069 64.8H76.6249V83H72.9069V64.8ZM60.6869 64.8H64.4049V83H60.6869V64.8ZM80.4124 64.8H84.1304V76.786C84.1304 77.826 84.3991 78.6667 84.9364 79.308C85.4911 79.932 86.3057 80.244 87.3804 80.244C88.4551 80.244 89.2611 79.932 89.7984 79.308C90.3531 78.6667 90.6304 77.826 90.6304 76.786V64.8H94.3484V77.02C94.3484 78.0947 94.1751 79.0393 93.8284 79.854C93.4817 80.6687 92.9877 81.3533 92.3464 81.908C91.7224 82.4627 90.9857 82.8787 90.1364 83.156C89.2871 83.4507 88.3684 83.598 87.3804 83.598C86.3751 83.598 85.4477 83.4507 84.5984 83.156C83.7491 82.8787 83.0124 82.4627 82.3884 81.908C81.7644 81.3533 81.2791 80.6687 80.9324 79.854C80.5857 79.0393 80.4124 78.0947 80.4124 77.02V64.8ZM107.519 76.89C107.9 77.566 108.316 78.1553 108.767 78.658C109.235 79.1607 109.746 79.5507 110.301 79.828C110.856 80.1053 111.454 80.244 112.095 80.244C112.84 80.244 113.447 80.0533 113.915 79.672C114.383 79.2907 114.617 78.7707 114.617 78.112C114.617 77.54 114.47 77.0807 114.175 76.734C113.898 76.3873 113.473 76.084 112.901 75.824C112.346 75.5467 111.662 75.252 110.847 74.94C110.414 74.784 109.911 74.576 109.339 74.316C108.784 74.0387 108.256 73.692 107.753 73.276C107.25 72.8427 106.834 72.3227 106.505 71.716C106.176 71.092 106.011 70.3467 106.011 69.48C106.011 68.44 106.271 67.5473 106.791 66.802C107.328 66.0393 108.048 65.4587 108.949 65.06C109.868 64.644 110.89 64.436 112.017 64.436C113.178 64.436 114.175 64.6353 115.007 65.034C115.856 65.4153 116.558 65.9093 117.113 66.516C117.685 67.1053 118.127 67.7207 118.439 68.362L115.527 69.974C115.284 69.5407 114.99 69.1507 114.643 68.804C114.314 68.44 113.932 68.154 113.499 67.946C113.066 67.7207 112.572 67.608 112.017 67.608C111.289 67.608 110.743 67.7813 110.379 68.128C110.015 68.4573 109.833 68.8473 109.833 69.298C109.833 69.7487 109.98 70.1473 110.275 70.494C110.57 70.8233 111.02 71.144 111.627 71.456C112.234 71.7507 112.996 72.054 113.915 72.366C114.504 72.574 115.068 72.834 115.605 73.146C116.16 73.458 116.654 73.8393 117.087 74.29C117.538 74.7233 117.884 75.2433 118.127 75.85C118.387 76.4393 118.517 77.124 118.517 77.904C118.517 78.788 118.344 79.5767 117.997 80.27C117.65 80.9633 117.174 81.5527 116.567 82.038C115.96 82.506 115.276 82.8613 114.513 83.104C113.768 83.364 112.979 83.494 112.147 83.494C111.038 83.494 109.998 83.286 109.027 82.87C108.074 82.4367 107.242 81.856 106.531 81.128C105.82 80.4 105.266 79.6113 104.867 78.762L107.519 76.89ZM124.07 78.866L124.512 75.928H133.248L133.69 78.866H124.07ZM128.828 70.702L126.098 76.968L126.176 77.8L123.784 83H119.598L128.828 63.734L138.058 83H133.846L131.506 77.956L131.558 77.02L128.828 70.702ZM152.981 64.8H156.569V83.91L143.621 71.716V83H140.033V63.89L152.981 76.084V64.8ZM169.363 76.24V73.276H178.333C178.385 74.6627 178.22 75.9713 177.839 77.202C177.475 78.4327 176.894 79.5247 176.097 80.478C175.317 81.414 174.346 82.1507 173.185 82.688C172.024 83.2253 170.698 83.494 169.207 83.494C167.803 83.494 166.503 83.26 165.307 82.792C164.128 82.324 163.097 81.6653 162.213 80.816C161.346 79.9667 160.67 78.9527 160.185 77.774C159.717 76.5953 159.483 75.304 159.483 73.9C159.483 72.496 159.726 71.2133 160.211 70.052C160.714 68.8733 161.407 67.868 162.291 67.036C163.175 66.204 164.215 65.5627 165.411 65.112C166.607 64.6613 167.907 64.436 169.311 64.436C170.559 64.436 171.677 64.6093 172.665 64.956C173.67 65.3027 174.554 65.788 175.317 66.412C176.097 67.0187 176.764 67.7467 177.319 68.596L174.147 70.442C173.696 69.6447 173.064 69.0033 172.249 68.518C171.452 68.0153 170.472 67.764 169.311 67.764C168.219 67.764 167.222 68.0153 166.321 68.518C165.42 69.0033 164.7 69.7053 164.163 70.624C163.643 71.5427 163.383 72.6347 163.383 73.9C163.383 75.148 163.643 76.2487 164.163 77.202C164.683 78.138 165.385 78.866 166.269 79.386C167.17 79.906 168.184 80.166 169.311 80.166C170.056 80.166 170.724 80.0707 171.313 79.88C171.902 79.672 172.405 79.386 172.821 79.022C173.254 78.658 173.618 78.242 173.913 77.774C174.208 77.306 174.433 76.7947 174.589 76.24H169.363ZM183.103 78.866L183.545 75.928H192.281L192.723 78.866H183.103ZM187.861 70.702L185.131 76.968L185.209 77.8L182.817 83H178.631L187.861 63.734L197.091 83H192.879L190.539 77.956L190.591 77.02L187.861 70.702Z" fill="black"/>
</svg>
