<svg width="198" height="162" viewBox="0 0 198 162" fill="none" xmlns="http://www.w3.org/2000/svg">
<path d="M98.0867 66.6274C95.2957 64.4874 92.2127 62.7294 88.9497 61.4164C86.7727 60.5404 84.5067 59.8584 82.4527 58.7214C77.0197 55.7144 73.6697 49.7614 72.5837 43.6474C71.4977 37.5334 72.4157 31.2384 73.8297 25.1924C73.8427 29.1234 75.6227 33.0154 78.5867 35.5964C81.2797 37.9414 84.7447 39.1484 88.0137 40.5834C93.0907 42.8124 97.8767 45.7054 102.21 49.1654C104.079 50.6574 105.879 52.2704 107.288 54.2034C110.223 58.2304 111.253 63.5854 110.021 68.4134C108.827 73.0934 105.386 77.5604 100.905 79.5064C103.9 74.6764 102.634 70.1144 98.0867 66.6274Z" fill="white"/>
<path d="M109.434 53.084C110.151 48.384 108.34 43.5681 105.462 39.7841C102.584 36.0001 98.715 33.102 94.8 30.406C92.349 28.718 89.837 27.0701 87.774 24.9261C85.711 22.7811 84.104 20.052 83.905 17.083C83.706 14.114 85.161 10.935 87.852 9.66504C83.836 10.617 80.22 13.324 78.388 17.022C76.556 20.72 76.63 25.3571 78.783 28.8791C81.056 32.5981 85.186 34.7031 89.157 36.5001C93.788 38.5971 98.55 40.565 102.562 43.687C105.512 45.983 107.155 48.662 108.983 51.923C108.983 51.923 109.307 52.35 109.434 53.084Z" fill="white"/>
<path d="M96.4025 27.997C94.4685 26.603 92.5195 25.195 90.9205 23.426C89.3225 21.657 88.0815 19.476 87.8415 17.104C87.6025 14.732 88.4995 12.173 90.4475 10.799C91.7715 9.86498 93.4215 9.54597 94.9065 8.89697C96.3175 8.28097 97.5925 7.354 98.6135 6.202C99.3975 5.317 100.048 4.25998 100.193 3.08698C100.337 1.91398 99.8845 0.618 98.8775 0C100.491 1.183 102.132 2.39498 103.287 4.02798C105.697 7.43498 105.411 12.495 102.631 15.608C101.392 16.996 99.7025 18.062 98.9685 19.772C98.1295 21.728 98.7905 24.039 99.9545 25.821C101.119 27.604 102.739 29.036 104.072 30.696C104.571 31.318 106.564 33.819 106.134 34.694C105.794 35.386 104.892 34.317 104.435 33.938C101.875 31.813 99.1025 29.943 96.4025 27.997Z" fill="white"/>
<path d="M99.7404 74.5479C99.2354 71.4719 96.2494 69.5039 93.4594 68.1139C88.4424 65.6149 83.0514 63.6679 78.7374 60.0889C78.4374 62.0089 78.9024 64.0109 79.8004 65.7349C80.6214 67.3109 81.9004 68.7759 83.3294 69.8309C84.2514 70.5109 85.3184 70.9609 86.3184 71.5189C88.6274 72.8069 90.5954 74.6999 91.9714 76.9579C92.6314 78.0409 93.1644 79.2359 93.2534 80.5009C93.3424 81.7659 92.9294 83.1119 91.9624 83.9319C92.1544 83.7689 94.7354 83.7729 97.0204 81.0499C98.5894 79.1789 100.165 77.1329 99.7404 74.5479Z" fill="white"/>
<path d="M71.7374 83.4643C56.5544 79.3863 39.6203 86.0393 25.0083 80.2403C24.6503 80.0983 24.2703 79.9453 23.8903 80.0123C23.5843 80.0653 23.3223 80.2543 23.0713 80.4373C17.9313 84.1953 12.7923 87.9543 7.65234 91.7123C10.9513 91.3253 21.7683 91.7863 24.7333 91.9233C30.5023 92.1913 36.2623 92.6563 41.9993 93.3183C53.5533 94.6513 65.0164 96.7803 76.2784 99.6873C82.5994 101.319 88.7683 103.71 95.0733 105.272C91.5543 94.7463 82.3994 86.3273 71.7374 83.4643Z" fill="white"/>
<path d="M76.6813 84.0282C68.1793 80.4992 58.8083 79.6932 49.6053 79.4992C43.3453 79.3672 36.5483 79.3272 31.6123 75.4742C33.9323 75.2072 36.2073 74.5482 38.3113 73.5332C39.1853 74.9872 40.8863 75.7032 42.5133 76.1832C50.5093 78.5422 59.1213 77.3882 67.3283 78.8522C77.9983 80.7552 87.7583 87.2942 93.5753 96.4392C94.6513 98.1312 95.6953 100.29 96.1613 102.685C94.5913 98.9802 91.0333 94.3832 89.2593 92.5172C85.7503 88.8262 81.3753 85.9772 76.6813 84.0282Z" fill="white"/>
<path d="M70.4448 76.2265C66.3718 75.3555 61.9208 75.2685 57.7818 74.8085C55.7658 74.5845 53.7388 74.3095 51.8168 73.6615C49.8938 73.0145 48.0638 71.9685 46.7598 70.4135C48.4258 70.5945 50.1378 70.3425 51.6808 69.6875C51.8548 70.4255 52.4008 71.0195 52.9878 71.4995C54.6068 72.8225 56.6508 73.5285 58.7078 73.9055C60.7648 74.2815 62.8628 74.3515 64.9438 74.5475C70.3768 75.0595 75.8878 76.5175 80.4568 79.5925C81.7308 80.4505 84.4328 82.7105 85.4778 83.8405C80.9358 79.9325 75.4118 77.2895 70.4448 76.2265Z" fill="white"/>
<path d="M96.161 108.905C96.161 108.905 59.905 94.9382 5.121 94.7822L0 98.5072C0 98.5072 45.819 94.1612 96.161 108.905Z" fill="white"/>
<path d="M120.584 83.5538C135.767 79.4758 152.701 86.1288 167.313 80.3298C167.671 80.1878 168.051 80.0358 168.431 80.1018C168.737 80.1548 168.999 80.3438 169.25 80.5268C174.39 84.2848 179.529 88.0438 184.669 91.8018C181.37 91.4148 170.553 91.8758 167.588 92.0128C161.819 92.2808 156.059 92.7458 150.322 93.4078C138.768 94.7408 127.305 96.8698 116.043 99.7768C109.722 101.409 103.552 103.8 97.248 105.362C100.768 94.8358 109.923 86.4178 120.584 83.5538Z" fill="white"/>
<path d="M115.641 84.118C124.143 80.589 133.514 79.7831 142.718 79.5891C148.978 79.4571 155.775 79.417 160.711 75.564C158.391 75.297 156.116 74.638 154.012 73.623C153.138 75.077 151.437 75.793 149.81 76.273C141.814 78.632 133.202 77.478 124.995 78.942C114.325 80.845 104.565 87.3841 98.7481 96.5291C97.6721 98.2211 96.6281 100.38 96.1621 102.775C97.7321 99.0701 101.289 94.4731 103.064 92.6071C106.572 88.9161 110.946 86.066 115.641 84.118Z" fill="white"/>
<path d="M121.877 76.3163C125.95 75.4453 130.401 75.3583 134.54 74.8983C136.556 74.6743 138.582 74.3993 140.505 73.7513C142.428 73.1033 144.258 72.0584 145.562 70.5034C143.896 70.6844 142.184 70.4323 140.641 69.7773C140.467 70.5153 139.921 71.1094 139.334 71.5894C137.715 72.9124 135.671 73.6184 133.614 73.9944C131.558 74.3704 129.459 74.4404 127.378 74.6364C121.945 75.1474 116.434 76.6063 111.865 79.6813C110.591 80.5393 107.889 82.7994 106.844 83.9294C111.386 80.0214 116.91 77.3783 121.877 76.3163Z" fill="white"/>
<path d="M96.1611 108.994C96.1611 108.994 132.417 95.0271 187.2 94.8711L192.321 98.5961C192.321 98.5961 146.503 94.2511 96.1611 108.994Z" fill="white"/>
<path d="M25.7129 100.768C25.7129 100.768 65.0879 101.656 96.1609 111.209V115.652C96.1609 115.652 79.4719 106.988 25.7129 100.768Z" fill="white"/>
<path d="M166.609 100.768C166.609 100.768 127.234 101.656 96.1611 111.209V115.652C96.1611 115.652 112.85 106.988 166.609 100.768Z" fill="white"/>
<path d="M9.562 145.89C9.94333 146.566 10.3593 147.155 10.81 147.658C11.278 148.161 11.7893 148.551 12.344 148.828C12.8987 149.105 13.4967 149.244 14.138 149.244C14.8833 149.244 15.49 149.053 15.958 148.672C16.426 148.291 16.66 147.771 16.66 147.112C16.66 146.54 16.5127 146.081 16.218 145.734C15.9407 145.387 15.516 145.084 14.944 144.824C14.3893 144.547 13.7047 144.252 12.89 143.94C12.4567 143.784 11.954 143.576 11.382 143.316C10.8273 143.039 10.2987 142.692 9.796 142.276C9.29333 141.843 8.87733 141.323 8.548 140.716C8.21867 140.092 8.054 139.347 8.054 138.48C8.054 137.44 8.314 136.547 8.834 135.802C9.37133 135.039 10.0907 134.459 10.992 134.06C11.9107 133.644 12.9333 133.436 14.06 133.436C15.2213 133.436 16.218 133.635 17.05 134.034C17.8993 134.415 18.6013 134.909 19.156 135.516C19.728 136.105 20.17 136.721 20.482 137.362L17.57 138.974C17.3273 138.541 17.0327 138.151 16.686 137.804C16.3567 137.44 15.9753 137.154 15.542 136.946C15.1087 136.721 14.6147 136.608 14.06 136.608C13.332 136.608 12.786 136.781 12.422 137.128C12.058 137.457 11.876 137.847 11.876 138.298C11.876 138.749 12.0233 139.147 12.318 139.494C12.6127 139.823 13.0633 140.144 13.67 140.456C14.2767 140.751 15.0393 141.054 15.958 141.366C16.5473 141.574 17.1107 141.834 17.648 142.146C18.2027 142.458 18.6967 142.839 19.13 143.29C19.5807 143.723 19.9273 144.243 20.17 144.85C20.43 145.439 20.56 146.124 20.56 146.904C20.56 147.788 20.3867 148.577 20.04 149.27C19.6933 149.963 19.2167 150.553 18.61 151.038C18.0033 151.506 17.3187 151.861 16.556 152.104C15.8107 152.364 15.022 152.494 14.19 152.494C13.0807 152.494 12.0407 152.286 11.07 151.87C10.1167 151.437 9.28467 150.856 8.574 150.128C7.86333 149.4 7.30867 148.611 6.91 147.762L9.562 145.89ZM26.1132 147.866L26.5552 144.928H35.2912L35.7332 147.866H26.1132ZM30.8712 139.702L28.1412 145.968L28.2192 146.8L25.8272 152H21.6412L30.8712 132.734L40.1012 152H35.8892L33.5492 146.956L33.6012 146.02L30.8712 139.702ZM42.0756 133.8H45.8716V152H42.0756V133.8ZM48.2636 152H44.4676V148.62H48.1336C48.9309 148.62 49.6849 148.516 50.3956 148.308C51.1063 148.083 51.7303 147.736 52.2676 147.268C52.8049 146.8 53.2209 146.211 53.5156 145.5C53.8276 144.772 53.9836 143.905 53.9836 142.9C53.9836 141.895 53.8276 141.037 53.5156 140.326C53.2209 139.598 52.8049 139 52.2676 138.532C51.7303 138.064 51.1063 137.726 50.3956 137.518C49.6849 137.293 48.9309 137.18 48.1336 137.18H44.4676V133.8H48.2636C50.1703 133.8 51.8343 134.173 53.2556 134.918C54.6943 135.663 55.8123 136.721 56.6096 138.09C57.4069 139.442 57.8056 141.045 57.8056 142.9C57.8056 144.755 57.4069 146.367 56.6096 147.736C55.8123 149.088 54.6943 150.137 53.2556 150.882C51.8343 151.627 50.1703 152 48.2636 152ZM61.9089 143.992V140.638H75.2729V143.992H61.9089ZM72.9069 133.8H76.6249V152H72.9069V133.8ZM60.6869 133.8H64.4049V152H60.6869V133.8ZM80.4124 133.8H84.1304V145.786C84.1304 146.826 84.3991 147.667 84.9364 148.308C85.4911 148.932 86.3057 149.244 87.3804 149.244C88.4551 149.244 89.2611 148.932 89.7984 148.308C90.3531 147.667 90.6304 146.826 90.6304 145.786V133.8H94.3484V146.02C94.3484 147.095 94.1751 148.039 93.8284 148.854C93.4817 149.669 92.9877 150.353 92.3464 150.908C91.7224 151.463 90.9857 151.879 90.1364 152.156C89.2871 152.451 88.3684 152.598 87.3804 152.598C86.3751 152.598 85.4477 152.451 84.5984 152.156C83.7491 151.879 83.0124 151.463 82.3884 150.908C81.7644 150.353 81.2791 149.669 80.9324 148.854C80.5857 148.039 80.4124 147.095 80.4124 146.02V133.8ZM107.519 145.89C107.9 146.566 108.316 147.155 108.767 147.658C109.235 148.161 109.746 148.551 110.301 148.828C110.856 149.105 111.454 149.244 112.095 149.244C112.84 149.244 113.447 149.053 113.915 148.672C114.383 148.291 114.617 147.771 114.617 147.112C114.617 146.54 114.47 146.081 114.175 145.734C113.898 145.387 113.473 145.084 112.901 144.824C112.346 144.547 111.662 144.252 110.847 143.94C110.414 143.784 109.911 143.576 109.339 143.316C108.784 143.039 108.256 142.692 107.753 142.276C107.25 141.843 106.834 141.323 106.505 140.716C106.176 140.092 106.011 139.347 106.011 138.48C106.011 137.44 106.271 136.547 106.791 135.802C107.328 135.039 108.048 134.459 108.949 134.06C109.868 133.644 110.89 133.436 112.017 133.436C113.178 133.436 114.175 133.635 115.007 134.034C115.856 134.415 116.558 134.909 117.113 135.516C117.685 136.105 118.127 136.721 118.439 137.362L115.527 138.974C115.284 138.541 114.99 138.151 114.643 137.804C114.314 137.44 113.932 137.154 113.499 136.946C113.066 136.721 112.572 136.608 112.017 136.608C111.289 136.608 110.743 136.781 110.379 137.128C110.015 137.457 109.833 137.847 109.833 138.298C109.833 138.749 109.98 139.147 110.275 139.494C110.57 139.823 111.02 140.144 111.627 140.456C112.234 140.751 112.996 141.054 113.915 141.366C114.504 141.574 115.068 141.834 115.605 142.146C116.16 142.458 116.654 142.839 117.087 143.29C117.538 143.723 117.884 144.243 118.127 144.85C118.387 145.439 118.517 146.124 118.517 146.904C118.517 147.788 118.344 148.577 117.997 149.27C117.65 149.963 117.174 150.553 116.567 151.038C115.96 151.506 115.276 151.861 114.513 152.104C113.768 152.364 112.979 152.494 112.147 152.494C111.038 152.494 109.998 152.286 109.027 151.87C108.074 151.437 107.242 150.856 106.531 150.128C105.82 149.4 105.266 148.611 104.867 147.762L107.519 145.89ZM124.07 147.866L124.512 144.928H133.248L133.69 147.866H124.07ZM128.828 139.702L126.098 145.968L126.176 146.8L123.784 152H119.598L128.828 132.734L138.058 152H133.846L131.506 146.956L131.558 146.02L128.828 139.702ZM152.981 133.8H156.569V152.91L143.621 140.716V152H140.033V132.89L152.981 145.084V133.8ZM169.363 145.24V142.276H178.333C178.385 143.663 178.22 144.971 177.839 146.202C177.475 147.433 176.894 148.525 176.097 149.478C175.317 150.414 174.346 151.151 173.185 151.688C172.024 152.225 170.698 152.494 169.207 152.494C167.803 152.494 166.503 152.26 165.307 151.792C164.128 151.324 163.097 150.665 162.213 149.816C161.346 148.967 160.67 147.953 160.185 146.774C159.717 145.595 159.483 144.304 159.483 142.9C159.483 141.496 159.726 140.213 160.211 139.052C160.714 137.873 161.407 136.868 162.291 136.036C163.175 135.204 164.215 134.563 165.411 134.112C166.607 133.661 167.907 133.436 169.311 133.436C170.559 133.436 171.677 133.609 172.665 133.956C173.67 134.303 174.554 134.788 175.317 135.412C176.097 136.019 176.764 136.747 177.319 137.596L174.147 139.442C173.696 138.645 173.064 138.003 172.249 137.518C171.452 137.015 170.472 136.764 169.311 136.764C168.219 136.764 167.222 137.015 166.321 137.518C165.42 138.003 164.7 138.705 164.163 139.624C163.643 140.543 163.383 141.635 163.383 142.9C163.383 144.148 163.643 145.249 164.163 146.202C164.683 147.138 165.385 147.866 166.269 148.386C167.17 148.906 168.184 149.166 169.311 149.166C170.056 149.166 170.724 149.071 171.313 148.88C171.902 148.672 172.405 148.386 172.821 148.022C173.254 147.658 173.618 147.242 173.913 146.774C174.208 146.306 174.433 145.795 174.589 145.24H169.363ZM183.103 147.866L183.545 144.928H192.281L192.723 147.866H183.103ZM187.861 139.702L185.131 145.968L185.209 146.8L182.817 152H178.631L187.861 132.734L197.091 152H192.879L190.539 146.956L190.591 146.02L187.861 139.702Z" fill="white"/>
</svg>
